<svg xmlns="http://www.w3.org/2000/svg" xmlns:xlink="http://www.w3.org/1999/xlink" style="isolation:isolate" viewBox="254.459 1214 126.164 126.188" width="110pt" height="110pt"><path d=" M 317.529 1214 C 311.913 1227.77 308.525 1236.777 302.272 1250.138 C 306.106 1254.202 310.812 1258.935 318.455 1264.28 C 310.238 1260.899 304.633 1257.505 300.445 1253.982 C 292.442 1270.682 279.903 1294.469 254.459 1340.188 C 274.457 1328.642 289.96 1321.524 304.407 1318.808 C 303.787 1316.14 303.434 1313.254 303.458 1310.242 L 303.482 1309.602 C 303.799 1296.789 310.464 1286.936 318.36 1287.605 C 326.255 1288.274 332.392 1299.209 332.075 1312.022 C 332.015 1314.433 331.743 1316.752 331.268 1318.903 C 345.558 1321.699 360.895 1328.798 380.623 1340.188 C 376.733 1333.026 373.261 1326.57 369.945 1320.422 C 364.722 1316.374 359.275 1311.105 348.162 1305.402 C 355.8 1307.386 361.269 1309.676 365.532 1312.235 C 331.82 1249.47 329.09 1241.129 317.529 1214 Z " fill-rule="evenodd" fill="rgb(231,235,255)"/></svg>
