<svg xmlns="http://www.w3.org/2000/svg" xmlns:xlink="http://www.w3.org/1999/xlink" style="isolation:isolate" viewBox="1055.059 1199 141.4 141.4" width="141.4pt" height="141.4pt"><g><circle  cx="1125.7589350756607" cy="1269.7001496554124" r="62.70014965541691" fill="none" stroke-width="16" stroke="rgb(231,235,255)" stroke-linejoin="miter" stroke-linecap="butt" stroke-miterlimit="4"/><path d=" M 1125.247 1230.513 C 1106.677 1230.513 1091.118 1243.446 1087.083 1260.794 L 1105.809 1260.794 C 1109.188 1253.436 1116.625 1248.325 1125.247 1248.325 C 1137.046 1248.325 1146.622 1257.901 1146.622 1269.7 C 1146.622 1281.499 1137.046 1291.075 1125.247 1291.075 C 1116.625 1291.075 1109.188 1285.964 1105.809 1278.606 L 1087.083 1278.606 C 1091.118 1295.954 1106.677 1308.888 1125.247 1308.888 C 1136.063 1308.888 1145.859 1304.499 1152.952 1297.406 C 1160.045 1290.313 1164.434 1280.516 1164.434 1269.7 C 1164.434 1248.069 1146.878 1230.513 1125.247 1230.513 Z " fill="rgb(231,235,255)"/></g></svg>
