<svg class="logo" xmlns="http://www.w3.org/2000/svg" xmlns:xlink="http://www.w3.org/1999/xlink" viewBox="212.146 269.5 157.8 190.935"><g><path d=" M 284.555 270.373 C 280.658 271.77 276.246 275.005 273.82 278.094 C 270.805 281.844 269.187 285.594 257.643 314.933 C 246.393 343.389 223.524 401.258 217.863 415.303 C 215.951 420.156 213.818 426.553 213.083 429.494 C 211.833 434.641 211.833 435.156 213.083 440.524 C 215.51 451.186 220.289 457.289 227.863 459.495 C 231.392 460.524 232.716 460.598 235.878 459.862 C 242.79 458.318 248.525 453.539 252.275 446.186 C 253.746 443.244 263.599 418.906 264.481 415.817 C 264.922 414.494 264.187 413.244 260.511 409.273 C 254.113 402.288 250.657 394.935 250.363 387.802 C 249.922 377.949 254.702 369.419 263.599 364.566 C 267.128 362.581 268.084 362.36 274.481 362.36 C 278.305 362.36 282.349 362.654 283.379 362.949 C 285.291 363.537 285.438 363.39 287.791 357.287 C 289.482 352.948 290.658 350.963 291.394 351.11 C 291.982 351.257 293.452 353.904 294.702 356.993 C 295.879 360.081 297.129 362.875 297.423 363.169 C 297.717 363.39 299.114 363.243 300.511 362.728 C 301.982 362.287 305.512 361.919 308.453 361.919 C 315.365 361.919 321.468 364.787 326.321 370.302 C 329.924 374.419 332.571 381.111 332.571 386.184 C 332.571 393.611 328.674 402.067 321.762 409.788 C 319.629 412.141 317.865 414.42 317.865 414.788 C 317.865 416.553 330.586 447.142 332.35 449.715 C 335.218 453.906 339.63 457.362 344.115 459.054 C 348.895 460.818 351.101 460.892 355.807 459.274 C 365.733 455.892 371.984 442.141 369.336 429.274 C 368.601 425.45 356.101 392.876 347.277 371.552 C 345.659 367.728 343.527 362.213 342.424 359.419 C 341.395 356.551 336.762 344.86 332.203 333.316 C 327.644 321.771 321.688 306.697 318.968 299.859 C 316.247 292.947 313.085 285.52 311.982 283.314 C 309.482 278.314 304.997 273.608 300.806 271.476 C 296.835 269.417 288.599 268.829 284.555 270.373 Z " fill="rgb(42,54,111)"/><path d=" M 268.158 369.64 C 264.775 371.11 260.658 375.081 258.819 378.464 C 257.643 380.743 257.275 382.802 257.275 386.626 C 257.275 394.567 259.555 398.758 269.849 408.832 C 274.408 413.391 278.526 417.141 278.893 417.141 C 279.335 417.141 279.629 416.111 279.629 414.861 C 279.629 411.773 281.393 408.317 284.335 405.449 C 286.467 403.391 287.055 403.17 288.379 403.832 C 289.261 404.347 289.923 405.449 289.923 406.479 C 289.923 409.273 291.32 409.42 294.041 406.773 L 296.541 404.347 L 298.82 406.552 C 301.688 409.273 303.159 412.067 303.159 414.935 C 303.159 417.067 303.232 417.141 304.85 416.332 C 305.732 415.817 309.629 412.214 313.526 408.317 C 322.277 399.493 325.365 393.905 325.438 386.846 C 325.438 376.331 318.085 368.61 308.085 368.61 C 302.57 368.61 299.188 370.081 294.923 374.346 L 291.394 377.728 L 287.938 374.346 C 285.952 372.434 283.158 370.375 281.687 369.713 C 278.379 368.39 271.246 368.316 268.158 369.64 Z " fill="rgb(42,54,111)"/></g></svg>
